<svg width="159" height="28" viewBox="0 0 159 28" fill="none" xmlns="http://www.w3.org/2000/svg">
<path d="M20.474 27.3226H12.6821L7.03575 18.16H6.37536V27.3226H0V1.87256H10.1206C12.8218 1.87256 18.1591 2.98328 18.1591 10.0165C18.1591 14.7597 15.7313 16.8074 13.3218 17.639L20.474 27.3226ZM11.7266 10.0165C11.7266 7.69009 10.1967 7.00383 8.65815 7.00383H6.37536V13.0291H8.65815C10.1967 13.0291 11.7266 12.3429 11.7266 10.0165Z" fill="#313964"/>
<path d="M22.1533 3.43636C22.1533 1.53879 23.647 0 25.4894 0C27.3324 0 28.8261 1.53879 28.8261 3.43636C28.8261 5.33432 27.3324 6.87311 25.4894 6.87311C23.647 6.8731 22.1533 5.33431 22.1533 3.43636Z" fill="#67E0B2"/>
<path d="M22.4619 27.3558V10.0732H28.4831V27.3558H22.4619Z" fill="#313964"/>
<path d="M45.7798 21.4961C45.7798 26.2323 41.4118 27.9984 37.7529 27.9984C34.0939 27.9984 31.0088 26.0106 31.0088 26.0106L33.1803 21.6981C33.1803 21.6981 35.5701 23.4503 37.9175 23.4503C38.8968 23.4503 39.7927 22.8488 39.7927 22.1365C39.7927 19.454 32.2924 21.7789 32.2924 15.7018C32.2924 10.8797 36.6422 9.43555 39.8259 9.43555C41.6169 9.43555 43.9097 9.89156 45.2537 10.5474L43.2466 14.5227C43.2466 14.5227 41.4867 13.6463 40.023 13.6463C38.768 13.6463 38.181 14.2764 38.181 14.8932C38.181 16.9406 45.7801 15.3739 45.7798 21.4961Z" fill="#313964"/>
<path d="M60.6774 21.0753H66.433C66.433 27.1231 60.0012 27.9926 57.3411 27.9926C54.6811 27.9926 47.9023 26.3348 47.9023 18.8026C47.9023 11.2703 53.7569 9.43555 57.2775 9.43555C62.7174 9.43555 65.2642 12.2353 66.1107 16.2081C66.3481 17.3111 66.4543 18.5021 66.4543 19.7461H53.9199C53.9199 22.5775 55.4037 23.6875 57.5395 23.6875C59.6748 23.6875 60.6774 22.4893 60.6774 21.0753ZM54.0645 16.2081H60.8117L60.7727 16.1835C60.7727 14.9109 59.8095 13.3768 57.4402 13.3768C55.0744 13.3768 54.0649 15.0665 54.0645 16.2081Z" fill="#313964"/>
<path d="M98.0301 16.068V27.3454H92.0091V18.3203C92.0091 15.5367 91.0426 14.5435 89.3127 14.5435C87.9279 14.5435 87.2498 15.4732 86.9184 16.5442V27.3454H80.897V18.3203C80.897 15.5367 79.9305 14.5435 78.2006 14.5435C75.6963 14.5435 75.4964 16.5222 75.4964 17.9446V27.345H69.4756V10.0625H75.4964V12.1701C75.4964 12.1701 76.6105 9.69238 80.4707 9.69238C83.1027 9.69238 85.4791 10.8446 86.4507 13.3667C87.0567 12.1657 88.659 9.69238 91.5828 9.69238C95.0202 9.69238 98.0305 11.6483 98.0301 16.068Z" fill="#313964"/>
<path d="M114.345 10.0478H120.366V27.3675H114.345V25.8694C112.9 27.1997 111.043 28.0002 109.016 28.0002C104.41 28.0002 100.677 23.8691 100.677 18.773C100.677 13.677 104.41 9.5459 109.016 9.5459C111.043 9.5459 112.9 10.3468 114.345 11.6763V10.0478ZM114.345 18.773C114.345 16.5799 112.784 14.8017 110.677 14.8017C108.57 14.8017 106.861 16.5799 106.861 18.773C106.861 20.9665 108.57 22.7448 110.677 22.7448C112.784 22.7448 114.345 20.9662 114.345 18.773Z" fill="#313964"/>
<path d="M134.05 23.0077V27.9939C130.525 27.9939 124.992 27.2519 124.992 21.2357V15.3694H123.092V10.0707H124.992V4.88281H131.012V20.1816C131.012 21.2111 131.572 23.0077 134.05 23.0077Z" fill="#313964"/>
<path d="M132.158 13.4998C132.158 11.6023 133.652 10.0635 135.495 10.0635C137.337 10.0635 138.831 11.6023 138.831 13.4998C138.831 15.3978 137.337 16.9363 135.495 16.9363C133.652 16.9363 132.158 15.3978 132.158 13.4998Z" fill="#67E0B2"/>
<path d="M153.223 21.0753H158.979C158.979 27.1231 152.547 27.9926 149.887 27.9926C147.227 27.9926 140.448 26.3348 140.448 18.8026C140.448 11.2703 146.303 9.43555 149.823 9.43555C155.263 9.43555 157.81 12.2353 158.657 16.2081C158.894 17.3111 159 18.5021 159 19.7461H146.466C146.466 22.5775 147.95 23.6875 150.085 23.6875C152.221 23.6875 153.223 22.4893 153.223 21.0753ZM146.61 16.2081H153.358L153.319 16.1835C153.319 14.9109 152.355 13.3768 149.986 13.3768C147.62 13.3768 146.611 15.0665 146.61 16.2081Z" fill="#313964"/>
</svg>
