<svg width="54" height="35" viewBox="0 0 54 35" fill="none" xmlns="http://www.w3.org/2000/svg">
<path d="M12.0873 8.31969C14.8926 5.33803 19.915 7.31494 19.915 11.4008L19.9149 13.8474C19.9149 15.2991 19.3358 16.6912 18.3051 17.7177L12.0051 23.9913C9.84355 26.1438 6.339 26.1438 4.17746 23.9913C2.01592 21.8388 2.01592 18.3489 4.17746 16.1964L12.0873 8.31969Z" fill="url(#paint0_linear_79_1184)"/>
<path fill-rule="evenodd" clip-rule="evenodd" d="M33.5286 0.0118544C35.059 -0.0837907 36.6217 0.450704 37.7912 1.61534L52.3784 16.1415C54.54 18.294 54.54 21.7839 52.3784 23.9364C50.2169 26.0889 46.7124 26.0889 44.5508 23.9364L29.9636 9.41022C29.4586 8.90729 29.0715 8.33136 28.8025 7.71654H28.7635C26.6327 7.71654 24.9053 5.98913 24.9053 3.85827C24.9053 1.72741 26.6327 0 28.7635 0H33.2239C33.3265 0 33.4281 0.00400065 33.5286 0.0118544Z" fill="url(#paint1_radial_79_1184)"/>
<rect x="33.5869" y="35" width="11.0699" height="35" rx="5.53497" transform="rotate(180 33.5869 35)" fill="url(#paint2_linear_79_1184)"/>
<defs>
<linearGradient id="paint0_linear_79_1184" x1="4.15146" y1="23.7008" x2="18.7559" y2="8.6199" gradientUnits="userSpaceOnUse">
<stop stop-color="#222848"/>
<stop offset="1" stop-color="#313964"/>
</linearGradient>
<radialGradient id="paint1_radial_79_1184" cx="0" cy="0" r="1" gradientUnits="userSpaceOnUse" gradientTransform="translate(29.8868 8.26772) rotate(-1.96666) scale(8.03047 12.4637)">
<stop stop-color="#307358"/>
<stop offset="1" stop-color="#69E2B5"/>
</radialGradient>
<linearGradient id="paint2_linear_79_1184" x1="39.1219" y1="35" x2="39.1219" y2="70" gradientUnits="userSpaceOnUse">
<stop stop-color="#222848"/>
<stop offset="1" stop-color="#313964"/>
</linearGradient>
</defs>
</svg>
