<svg width="110" height="72" viewBox="0 0 110 72" fill="none" xmlns="http://www.w3.org/2000/svg">
<path d="M24.5645 17.2647V17.2647C30.2658 11.1796 40.4725 15.2142 40.4725 23.5527L40.4725 28.5457C40.4724 31.5083 39.2956 34.3494 37.2007 36.4443L24.3974 49.2476C20.0046 53.6404 12.8824 53.6404 8.48952 49.2476V49.2476C4.09667 44.8547 4.09667 37.7325 8.48952 33.3396L24.5645 17.2647Z" fill="white"/>
<path fill-rule="evenodd" clip-rule="evenodd" d="M68.1235 0.310969C71.2391 0.110786 74.422 1.20124 76.8031 3.58232L106.448 33.2276C110.841 37.6204 110.841 44.7426 106.448 49.1355C102.056 53.5283 94.9333 53.5283 90.5405 49.1355L60.8952 19.4902C59.8688 18.4639 59.0823 17.2885 58.5355 16.0337H58.4893C54.1406 16.0337 50.6152 12.5084 50.6152 8.15973C50.6152 3.81102 54.1406 0.285706 58.4893 0.285706H67.4881C67.702 0.285706 67.9139 0.294234 68.1235 0.310969Z" fill="white"/>
<rect x="68.2578" y="71.7143" width="22.4972" height="71.4286" rx="11.2486" transform="rotate(180 68.2578 71.7143)" fill="white"/>
</svg>
