<svg width="159" height="27" viewBox="0 0 159 27" fill="none" xmlns="http://www.w3.org/2000/svg">
<path d="M20.474 25.6661H12.6821L7.03575 17.059H6.37536V25.6661H0V1.75879H10.1206C12.8218 1.75879 18.1591 2.80218 18.1591 9.40907C18.1591 13.8647 15.7313 15.7884 13.3218 16.5696L20.474 25.6661ZM11.7266 9.40907C11.7266 7.22369 10.1967 6.57903 8.65815 6.57903H6.37536V12.2391H8.65815C10.1967 12.2391 11.7266 11.5945 11.7266 9.40907Z" fill="#CFCFCF"/>
<path d="M22.1533 3.22807C22.1533 1.44551 23.647 0 25.4894 0C27.3324 0 28.8261 1.44551 28.8261 3.22807C28.8261 5.01098 27.3324 6.45649 25.4894 6.45649C23.647 6.45649 22.1533 5.01097 22.1533 3.22807Z" fill="#CFCFCF"/>
<path d="M22.4619 25.6974V9.4624H28.4831V25.6974H22.4619Z" fill="#CFCFCF"/>
<path d="M45.7798 20.1933C45.7798 24.6424 41.4118 26.3015 37.7529 26.3015C34.0939 26.3015 31.0088 24.4341 31.0088 24.4341L33.1803 20.383C33.1803 20.383 35.5701 22.029 37.9175 22.029C38.8968 22.029 39.7927 21.464 39.7927 20.7949C39.7927 18.2749 32.2924 20.4589 32.2924 14.7502C32.2924 10.2203 36.6422 8.86377 39.8259 8.86377C41.6169 8.86377 43.9097 9.29215 45.2537 9.90822L43.2466 13.6426C43.2466 13.6426 41.4867 12.8193 40.023 12.8193C38.768 12.8193 38.181 13.4112 38.181 13.9906C38.181 15.9139 45.7801 14.4422 45.7798 20.1933Z" fill="#CFCFCF"/>
<path d="M60.6784 19.798H66.434C66.434 25.4792 60.0021 26.296 57.3421 26.296C54.6821 26.296 47.9033 24.7387 47.9033 17.663C47.9033 10.5873 53.7579 8.86377 57.2785 8.86377C62.7184 8.86377 65.2652 11.4938 66.1117 15.2258C66.349 16.2619 66.4553 17.3808 66.4553 18.5494H53.9209C53.9209 21.2091 55.4047 22.2518 57.5404 22.2518C59.6758 22.2518 60.6784 21.1263 60.6784 19.798ZM54.0655 15.2258H60.8127L60.7737 15.2027C60.7737 14.0072 59.8105 12.5661 57.4411 12.5661C55.0754 12.5661 54.0659 14.1534 54.0655 15.2258Z" fill="#CFCFCF"/>
<path d="M98.0301 15.0942V25.688H92.0091V17.2099C92.0091 14.595 91.0426 13.662 89.3127 13.662C87.9279 13.662 87.2498 14.5354 86.9184 15.5415V25.688H80.897V17.2099C80.897 14.595 79.9305 13.662 78.2006 13.662C75.6963 13.662 75.4964 15.5208 75.4964 16.857V25.6876H69.4756V9.45266H75.4964V11.4325C75.4964 11.4325 76.6105 9.10498 80.4707 9.10498C83.1027 9.10498 85.4791 10.1873 86.4507 12.5566C87.0567 11.4284 88.659 9.10498 91.5828 9.10498C95.0202 9.10498 98.0305 10.9423 98.0301 15.0942Z" fill="#CFCFCF"/>
<path d="M114.345 9.43881H120.366V25.7086H114.345V24.3013C112.9 25.551 111.043 26.3029 109.016 26.3029C104.41 26.3029 100.677 22.4223 100.677 17.6351C100.677 12.848 104.41 8.96729 109.016 8.96729C111.043 8.96729 112.9 9.7196 114.345 10.9685V9.43881ZM114.345 17.6351C114.345 15.5749 112.784 13.9045 110.677 13.9045C108.57 13.9045 106.861 15.5749 106.861 17.6351C106.861 19.6957 108.57 21.3661 110.677 21.3661C112.784 21.3661 114.345 19.6953 114.345 17.6351Z" fill="#CFCFCF"/>
<path d="M134.05 21.6131V26.2971C130.525 26.2971 124.992 25.6001 124.992 19.9486V14.4378H123.092V9.4603H124.992V4.58691H131.012V18.9583C131.012 19.9255 131.572 21.6131 134.05 21.6131Z" fill="#CFCFCF"/>
<path d="M132.158 12.6817C132.158 10.8992 133.652 9.45361 135.495 9.45361C137.337 9.45361 138.831 10.8992 138.831 12.6817C138.831 14.4646 137.337 15.9098 135.495 15.9098C133.652 15.9098 132.158 14.4646 132.158 12.6817Z" fill="#CFCFCF"/>
<path d="M153.222 19.798H158.978C158.978 25.4792 152.546 26.296 149.886 26.296C147.226 26.296 140.447 24.7387 140.447 17.663C140.447 10.5873 146.302 8.86377 149.822 8.86377C155.262 8.86377 157.809 11.4938 158.656 15.2258C158.893 16.2619 158.999 17.3808 158.999 18.5494H146.465C146.465 21.2091 147.949 22.2518 150.084 22.2518C152.22 22.2518 153.222 21.1263 153.222 19.798ZM146.609 15.2258H153.357L153.318 15.2027C153.318 14.0072 152.354 12.5661 149.985 12.5661C147.619 12.5661 146.61 14.1534 146.609 15.2258Z" fill="#CFCFCF"/>
</svg>
